<?xml version="1.0" standalone="no"?>
<!DOCTYPE svg PUBLIC "-//W3C//DTD SVG 20010904//EN"
 "http://www.w3.org/TR/2001/REC-SVG-20010904/DTD/svg10.dtd">
<svg version="1.0" xmlns="http://www.w3.org/2000/svg"
 width="848.000000pt" height="848.000000pt" viewBox="0 0 848.000000 848.000000"
 preserveAspectRatio="xMidYMid meet">
<metadata>
Created by potrace 1.14, written by Peter Selinger 2001-2017
</metadata>
<g transform="translate(0.000000,848.000000) scale(0.100000,-0.100000)"
fill="#000000" stroke="none">
<path d="M6086 7143 c-4 -4 -481 -13 -861 -16 -92 -1 -153 -5 -157 -12 -5 -7
-8 -7 -8 1 0 6 -34 9 -97 7 -113 -4 -105 -4 -163 0 -25 1 -49 1 -54 -2 -15 -7
-71 -5 -84 3 -7 4 -12 3 -12 -1 0 -5 -13 -9 -30 -8 -16 0 -30 3 -30 6 0 3 -10
5 -22 3 -13 -1 -23 -3 -23 -4 0 -2 -436 -10 -762 -13 -145 -1 -263 -6 -263
-10 0 -4 -9 -3 -20 3 -11 6 -20 7 -20 3 0 -4 -21 -9 -48 -10 -51 -3 -117 -10
-117 -13 0 -1 -11 -4 -25 -5 -93 -13 -140 -26 -133 -39 4 -8 3 -8 -6 0 -9 8
-29 5 -76 -11 -36 -12 -68 -24 -72 -28 -3 -4 -12 -7 -20 -7 -14 0 -104 -40
-113 -49 -3 -3 -9 -6 -15 -6 -15 0 -129 -58 -133 -67 -2 -4 -8 -8 -13 -8 -12
0 -123 -71 -127 -82 -2 -4 -10 -8 -17 -8 -8 0 -19 -8 -24 -17 -6 -10 -11 -13
-11 -8 0 7 -3 7 -8 0 -4 -5 -28 -27 -53 -47 -57 -45 -192 -179 -236 -233 -57
-70 -103 -134 -103 -143 0 -5 -10 -18 -23 -30 -13 -12 -29 -38 -37 -57 -8 -19
-17 -35 -21 -35 -4 0 -10 -11 -13 -25 -4 -14 -11 -25 -16 -25 -6 0 -10 -8 -10
-19 0 -10 -9 -30 -21 -45 -13 -17 -16 -26 -8 -26 8 0 6 -5 -5 -13 -9 -7 -18
-19 -20 -27 -2 -8 -8 -27 -14 -41 -17 -42 -63 -177 -66 -196 -2 -10 -9 -36
-14 -58 -6 -22 -13 -53 -16 -69 -3 -16 -7 -31 -10 -34 -3 -3 2 -11 12 -19 12
-9 13 -13 3 -11 -18 4 -30 -58 -28 -135 1 -30 -1 -53 -4 -51 -12 7 1 -304 16
-383 2 -10 4 -24 4 -31 1 -7 5 -10 11 -7 6 4 7 -1 3 -10 -6 -17 12 -117 27
-145 4 -9 11 -31 15 -50 10 -47 57 -164 67 -168 4 -2 6 -7 3 -11 -5 -9 98
-215 116 -231 23 -20 17 -44 -20 -83 -22 -23 -48 -52 -58 -64 -10 -12 -26 -31
-36 -42 -9 -12 -17 -26 -17 -31 0 -6 -4 -10 -9 -10 -8 0 -69 -85 -60 -85 2 0
-5 -10 -17 -22 -34 -37 -136 -232 -128 -244 3 -5 1 -9 -4 -9 -7 0 -22 -32 -58
-125 -4 -11 -6 -24 -5 -29 1 -4 -3 -14 -10 -22 -6 -7 -8 -18 -4 -24 3 -5 1
-10 -4 -10 -6 0 -10 -3 -10 -7 1 -5 0 -10 -1 -13 -1 -3 -3 -12 -5 -20 -2 -8
-6 -26 -9 -40 -3 -14 -7 -35 -10 -48 -3 -13 -8 -32 -11 -43 -4 -11 -1 -27 6
-35 10 -12 10 -15 -1 -12 -8 2 -15 -6 -16 -17 -17 -157 -25 -385 -15 -385 4 0
7 -24 7 -53 3 -88 7 -127 13 -127 4 0 7 -8 8 -17 8 -88 21 -146 36 -155 9 -5
8 -8 -3 -8 -13 -1 -13 -2 0 -13 8 -7 16 -27 18 -44 5 -73 170 -423 222 -473 3
-3 21 -27 40 -55 36 -52 56 -78 78 -100 6 -8 12 -18 12 -23 0 -5 11 -15 25
-22 14 -7 23 -15 21 -17 -4 -5 70 -78 133 -131 24 -20 54 -47 68 -59 13 -13
28 -23 33 -23 6 0 10 -4 10 -10 0 -5 5 -10 10 -10 6 0 20 -8 31 -18 10 -11 32
-25 47 -33 15 -8 29 -16 32 -19 9 -9 45 -30 90 -53 25 -12 47 -25 48 -29 2 -5
9 -8 15 -8 7 0 32 -10 57 -22 25 -12 55 -25 68 -30 12 -4 32 -13 45 -19 13 -5
29 -11 37 -13 8 -2 28 -8 45 -15 16 -7 37 -10 47 -8 10 3 16 1 12 -4 -3 -5 1
-9 8 -10 7 0 20 -2 28 -4 40 -10 147 -32 163 -34 9 -1 33 -2 52 -3 19 -1 35
-5 35 -8 0 -9 -42 -8 1448 -13 819 -3 1409 -1 1430 4 20 5 49 11 64 14 38 6
169 68 215 101 54 39 144 134 181 189 36 55 89 177 97 226 3 19 8 42 11 51 7
22 7 176 0 208 -15 68 -21 89 -30 115 -35 92 -86 179 -142 242 -16 18 -40 47
-54 64 -14 18 -29 37 -35 43 -5 6 -32 38 -59 71 -27 33 -53 59 -58 57 -5 -1
-7 1 -4 6 3 4 -5 20 -17 34 -12 14 -35 43 -52 63 -16 21 -40 48 -52 61 -13 13
-23 26 -23 28 0 14 -44 55 -53 49 -6 -3 -7 -1 -3 5 3 6 0 16 -7 24 -7 7 -23
28 -36 46 -12 18 -27 30 -32 27 -5 -4 -9 3 -9 14 0 10 -4 21 -8 23 -5 2 -25
24 -44 50 -20 26 -39 44 -42 41 -3 -4 -6 1 -6 9 0 9 -3 18 -7 20 -7 2 -61 66
-110 128 -49 62 -66 79 -74 74 -5 -3 -9 -2 -8 3 4 22 -2 43 -11 38 -5 -3 -10
-1 -10 5 0 11 -20 36 -77 96 -13 13 -23 27 -23 33 0 5 -3 11 -8 13 -4 1 -25
25 -47 53 -22 27 -47 57 -55 66 -59 66 -68 78 -62 83 3 3 -2 6 -12 6 -9 0 -15
4 -12 9 4 5 3 11 -2 13 -4 1 -18 18 -31 36 -12 18 -27 29 -33 26 -6 -4 -8 -2
-4 4 3 6 -4 18 -16 27 -13 8 -21 17 -18 19 3 3 -4 15 -15 28 -11 13 -40 48
-65 78 -25 30 -51 61 -57 68 -7 7 -13 18 -13 24 0 5 -7 7 -16 4 -9 -3 -12 -2
-9 5 9 13 -25 50 -38 42 -5 -3 -7 -1 -3 5 6 9 -34 67 -59 84 -6 4 11 29 41 60
88 91 114 121 114 129 0 5 4 9 9 9 6 0 34 25 63 57 29 31 68 71 86 89 17 18
32 38 32 44 0 6 3 9 8 7 4 -2 15 4 25 15 9 10 16 18 14 18 -2 0 43 47 99 105
57 58 100 105 96 105 -4 0 7 9 23 20 17 11 26 20 20 20 -5 0 -2 5 8 11 9 6 15
15 11 20 -3 5 -1 8 4 7 5 -2 30 18 56 44 25 27 45 48 43 48 -2 0 49 54 115
120 65 66 118 121 118 123 0 2 38 43 85 91 47 47 85 91 85 97 0 5 5 7 10 4 6
-3 10 -3 10 2 0 4 47 57 105 117 57 60 101 114 98 119 -3 6 -2 7 4 4 12 -8 65
41 57 54 -3 5 -2 8 3 7 5 -2 42 31 84 72 41 41 97 95 125 120 27 25 63 63 80
85 37 47 96 145 88 145 -4 0 0 10 8 23 8 12 20 45 27 72 38 152 32 281 -21
423 -46 125 -159 262 -272 330 -76 47 -182 88 -247 97 -63 9 -177 14 -183 8z
m-2415 -100 c13 -16 12 -17 -3 -4 -10 7 -18 15 -18 17 0 8 8 3 21 -13z m89 3
c0 -2 -8 -10 -17 -17 -16 -13 -17 -12 -4 4 13 16 21 21 21 13z m461 -19 c-10
-9 -11 -8 -5 6 3 10 9 15 12 12 3 -3 0 -11 -7 -18z m1195 11 c3 -4 -1 -5 -10
-4 -8 1 -18 5 -22 8 -3 4 1 5 10 4 8 -1 18 -5 22 -8z m-935 -65 c13 -16 12
-17 -3 -4 -10 7 -18 15 -18 17 0 8 8 3 21 -13z m963 9 c3 -5 -1 -9 -9 -9 -8 0
-12 4 -9 9 3 4 7 8 9 8 2 0 6 -4 9 -8z m-383 -115 c-10 -9 -11 -8 -5 6 3 10 9
15 12 12 3 -3 0 -11 -7 -18z m-735 -102 c-1 -8 -5 -17 -8 -21 -5 -4 -4 16 1
34 3 9 9 -1 7 -13z m-1666 -41 c0 -8 -19 -13 -24 -6 -3 5 1 9 9 9 8 0 15 -2
15 -3z m701 -71 c13 -16 12 -17 -3 -4 -10 7 -18 15 -18 17 0 8 8 3 21 -13z
m-890 -90 c13 -16 12 -17 -3 -4 -17 13 -22 21 -14 21 2 0 10 -8 17 -17z m913
-9 c3 -8 2 -12 -4 -9 -6 3 -10 10 -10 16 0 14 7 11 14 -7z m-809 -134 c-3 -5
-12 -10 -18 -10 -7 0 -6 4 3 10 19 12 23 12 15 0z m2015 -4 c0 -2 -8 -10 -17
-17 -16 -13 -17 -12 -4 4 13 16 21 21 21 13z m-190 -10 c0 -2 -8 -10 -17 -17
-16 -13 -17 -12 -4 4 13 16 21 21 21 13z m-1359 -73 c13 -16 12 -17 -3 -4 -10
7 -18 15 -18 17 0 8 8 3 21 -13z m-431 -93 c0 -5 -4 -10 -10 -10 -5 0 -10 5
-10 10 0 6 5 10 10 10 6 0 10 -4 10 -10z m-209 -53 c-10 -9 -11 -8 -5 6 3 10
9 15 12 12 3 -3 0 -11 -7 -18z m2409 -1 c0 -2 -7 -7 -16 -10 -8 -3 -12 -2 -9
4 6 10 25 14 25 6z m-1760 -30 c0 -2 -8 -10 -17 -17 -16 -13 -17 -12 -4 4 13
16 21 21 21 13z m1281 -13 c13 -16 12 -17 -3 -4 -10 7 -18 15 -18 17 0 8 8 3
21 -13z m-951 -117 c0 -2 -8 -10 -17 -17 -16 -13 -17 -12 -4 4 13 16 21 21 21
13z m-476 -116 c-6 -6 -10 -3 -10 10 0 13 4 16 10 10 7 -7 7 -13 0 -20z m1220
-116 c3 -8 2 -12 -4 -9 -6 3 -10 10 -10 16 0 14 7 11 14 -7z m-423 -39 c37 1
70 5 76 8 5 3 15 2 22 -2 7 -5 25 -5 40 -2 14 4 43 4 64 1 20 -4 39 -5 41 -1
6 8 150 6 164 -3 7 -4 12 -4 12 1 0 4 95 8 210 9 116 1 210 -3 210 -7 0 -5 -5
-9 -11 -9 -6 0 -9 -7 -6 -14 4 -11 1 -13 -10 -9 -9 4 -14 2 -10 -3 3 -5 -8
-19 -24 -29 -16 -11 -29 -22 -29 -25 0 -3 -36 -43 -80 -89 -44 -46 -77 -87
-74 -92 3 -5 -3 -6 -12 -2 -11 4 -15 3 -10 -5 3 -6 -3 -13 -14 -17 -11 -4 -18
-11 -15 -16 4 -5 -2 -9 -11 -9 -10 0 -15 -3 -12 -6 4 -3 -15 -26 -40 -52 -26
-26 -46 -50 -44 -54 1 -5 -5 -8 -14 -8 -8 0 -12 -4 -9 -10 3 -5 2 -10 -4 -10
-6 0 -32 -23 -58 -51 -26 -29 -67 -72 -90 -96 -24 -24 -43 -48 -43 -53 0 -6
-6 -10 -14 -10 -7 0 -21 -12 -30 -26 -10 -14 -34 -41 -54 -60 -20 -19 -33 -34
-29 -34 3 0 -6 -13 -21 -29 -15 -16 -34 -39 -42 -51 -14 -19 -24 -22 -90 -21
-161 2 -240 30 -333 117 -29 27 -55 48 -60 46 -4 -1 -7 1 -6 5 2 16 -14 53
-22 53 -5 0 -8 6 -7 13 2 6 -3 11 -10 9 -7 -1 -12 3 -11 10 3 28 -1 59 -8 55
-8 -5 -9 -1 -16 95 -2 32 -7 61 -10 65 -4 3 -2 12 3 19 6 6 10 16 9 20 -2 5 3
29 11 54 7 25 13 51 13 58 0 6 4 12 8 12 4 0 11 10 15 22 7 23 19 40 47 66 9
9 17 22 17 29 0 7 6 13 13 13 15 0 53 41 49 53 -1 5 2 5 8 2 6 -4 19 0 28 8
26 23 142 60 190 59 23 0 42 5 42 10 0 7 4 7 13 1 6 -5 42 -9 78 -8z m-660
-62 c13 -16 12 -17 -3 -4 -10 7 -18 15 -18 17 0 8 8 3 21 -13z m-431 -91 c0
-5 -7 -9 -15 -9 -8 0 -12 4 -9 9 3 4 9 8 15 8 5 0 9 -4 9 -8z m3316 -128 c1
-9 0 -13 -4 -10 -3 4 -7 14 -8 22 -1 9 0 13 4 10 3 -4 7 -14 8 -22z m-3351
-54 c-3 -5 -12 -10 -18 -10 -7 0 -6 4 3 10 19 12 23 12 15 0z m2071 -266 c1
-9 0 -13 -4 -10 -3 4 -7 14 -8 22 -1 9 0 13 4 10 3 -4 7 -14 8 -22z m484 7 c0
-6 -4 -12 -8 -15 -5 -3 -9 1 -9 9 0 8 4 15 9 15 4 0 8 -4 8 -9z m-2035 -40
c-9 -8 -36 -10 -30 -2 2 4 11 8 20 8 8 0 13 -3 10 -6z m915 -120 c0 -6 -4 -12
-8 -15 -5 -3 -9 1 -9 9 0 8 4 15 9 15 4 0 8 -4 8 -9z m-87 -76 c-3 -9 -8 -14
-10 -11 -3 3 -2 9 2 15 9 16 15 13 8 -4z m247 -6 c0 -5 -4 -9 -8 -9 -5 0 -9 7
-9 15 0 8 4 12 9 9 4 -3 8 -9 8 -15z m455 -108 c3 -5 2 -12 -3 -15 -5 -3 -9 1
-9 9 0 17 3 19 12 6z m-2055 -15 c0 -2 -8 -10 -17 -17 -16 -13 -17 -12 -4 4
13 16 21 21 21 13z m2400 -240 c0 -2 -8 -10 -17 -17 -16 -13 -17 -12 -4 4 13
16 21 21 21 13z m-2560 -755 c0 -6 -4 -12 -8 -15 -5 -3 -9 1 -9 9 0 8 4 15 9
15 4 0 8 -4 8 -9z m-680 -121 c0 -5 -4 -10 -10 -10 -5 0 -10 5 -10 10 0 6 5
10 10 10 6 0 10 -4 10 -10z m2103 -214 c18 -21 46 -53 64 -72 17 -19 28 -34
25 -34 -4 0 -2 -4 3 -8 6 -4 37 -41 70 -82 33 -41 66 -82 74 -92 8 -9 19 -14
24 -11 6 3 7 1 3 -5 -4 -6 1 -19 11 -29 10 -10 32 -36 48 -57 52 -66 62 -76
70 -68 5 4 5 2 1 -5 -4 -7 9 -27 29 -47 20 -20 33 -36 30 -36 -2 0 3 -9 12
-19 9 -11 21 -17 26 -14 6 3 7 1 4 -4 -4 -6 0 -16 8 -23 8 -7 12 -16 9 -21 -3
-5 2 -9 10 -9 9 0 16 -5 16 -11 0 -6 14 -24 31 -40 17 -16 28 -29 24 -29 -4 0
-2 -7 5 -15 7 -8 17 -12 23 -8 6 3 7 1 3 -5 -4 -7 -2 -12 4 -12 6 0 9 -4 5 -9
-3 -6 4 -15 16 -21 11 -7 18 -14 15 -17 -3 -3 5 -14 17 -24 12 -10 18 -19 12
-20 -26 -4 -1195 -3 -1195 1 0 3 -19 6 -42 7 -22 0 -50 6 -62 11 -12 6 -36 16
-53 24 -18 7 -33 16 -33 20 0 5 -6 8 -13 8 -7 0 -24 10 -37 23 -14 12 -29 21
-35 19 -5 -2 -7 0 -3 4 4 4 -4 17 -17 30 -14 13 -25 28 -25 34 0 5 -3 10 -7
10 -9 0 -56 98 -68 143 -2 4 -3 23 -4 43 -1 24 -5 33 -13 28 -7 -4 -8 -3 -4 5
4 6 10 35 12 64 8 88 10 95 25 113 8 9 12 18 10 18 -8 2 12 50 26 64 8 8 12
21 9 28 -3 8 -2 13 3 11 4 -1 26 16 49 38 22 22 49 47 59 55 22 19 104 59 121
60 6 0 12 4 12 10 0 5 6 7 13 4 7 -2 30 -1 50 3 21 5 141 8 268 7 l231 0 31
-38z m1352 -95 c3 -5 2 -12 -3 -15 -5 -3 -9 1 -9 9 0 17 3 19 12 6z m-3155
-155 c0 -2 -8 -10 -17 -17 -16 -13 -17 -12 -4 4 13 16 21 21 21 13z m3540 -16
c0 -5 -4 -10 -10 -10 -5 0 -10 5 -10 10 0 6 5 10 10 10 6 0 10 -4 10 -10z
m-1405 -48 c-3 -3 -11 0 -18 7 -9 10 -8 11 6 5 10 -3 15 -9 12 -12z m-1657
-117 c-3 -3 -9 2 -12 12 -6 14 -5 15 5 6 7 -7 10 -15 7 -18z m-668 11 c0 -2
-8 -10 -17 -17 -16 -13 -17 -12 -4 4 13 16 21 21 21 13z m181 -173 c13 -16 12
-17 -3 -4 -10 7 -18 15 -18 17 0 8 8 3 21 -13z m2669 9 c0 -5 -7 -9 -15 -9 -8
0 -12 4 -9 9 3 4 9 8 15 8 5 0 9 -4 9 -8z m-2064 -157 c-1 -8 -5 -17 -8 -21
-5 -4 -4 16 1 34 3 9 9 -1 7 -13z m125 -2 c13 -16 12 -17 -3 -4 -17 13 -22 21
-14 21 2 0 10 -8 17 -17z m-721 -147 c0 -2 -8 -10 -17 -17 -16 -13 -17 -12 -4
4 13 16 21 21 21 13z m2500 -14 c0 -5 -7 -9 -15 -9 -8 0 -12 4 -9 9 3 4 9 8
15 8 5 0 9 -4 9 -8z m-945 -161 c3 -5 2 -12 -3 -15 -5 -3 -9 1 -9 9 0 17 3 19
12 6z m745 -121 c0 -5 -4 -10 -10 -10 -5 0 -10 5 -10 10 0 6 5 10 10 10 6 0
10 -4 10 -10z m-2309 -47 c13 -16 12 -17 -3 -4 -10 7 -18 15 -18 17 0 8 8 3
21 -13z m1029 -33 c0 -5 -4 -10 -10 -10 -5 0 -10 5 -10 10 0 6 5 10 10 10 6 0
10 -4 10 -10z m-549 -127 c13 -16 12 -17 -3 -4 -10 7 -18 15 -18 17 0 8 8 3
21 -13z m1549 5 c0 -4 -4 -8 -9 -8 -6 0 -12 4 -15 8 -3 5 1 9 9 9 8 0 15 -4
15 -9z m640 2 c0 -5 -4 -10 -10 -10 -5 0 -10 5 -10 10 0 6 5 10 10 10 6 0 10
-4 10 -10z m-1920 -162 c0 -4 -4 -8 -9 -8 -6 0 -12 4 -15 8 -3 5 1 9 9 9 8 0
15 -4 15 -9z m1090 -254 c0 -8 -19 -13 -24 -6 -3 5 1 9 9 9 8 0 15 -2 15 -3z
m635 -3 c-9 -8 -36 -10 -30 -2 2 4 11 8 20 8 8 0 13 -3 10 -6z m-808 -26 c0
-8 -4 -12 -9 -9 -4 3 -8 9 -8 15 0 5 4 9 8 9 5 0 9 -7 9 -15z m-992 -115 c3
-6 -1 -7 -9 -4 -18 7 -21 14 -7 14 6 0 13 -4 16 -10z m2630 -8 c-3 -3 -11 0
-18 7 -9 10 -8 11 6 5 10 -3 15 -9 12 -12z m-1159 -27 c-1 -8 -5 -17 -8 -21
-5 -4 -4 16 1 34 3 9 9 -1 7 -13z m-58 -50 c-3 -3 -9 2 -12 12 -6 14 -5 15 5
6 7 -7 10 -15 7 -18z m643 8 c13 -16 12 -17 -3 -4 -17 13 -22 21 -14 21 2 0
10 -8 17 -17z m596 -8 c0 -8 -4 -12 -9 -9 -5 3 -6 10 -3 15 9 13 12 11 12 -6z"/>
</g>
</svg>
