<svg width="33" height="33" viewBox="0 0 33 33" fill="none" xmlns="http://www.w3.org/2000/svg">
<g id="Instagram - Negative" clip-path="url(#clip0_1_9057)">
<path id="Vector" d="M16.2333 2.9207C20.5172 2.9207 21.0245 2.93949 22.7092 3.01464C24.275 3.08354 25.1205 3.34659 25.6842 3.56579C26.4295 3.85389 26.9681 4.20462 27.5255 4.76203C28.0892 5.3257 28.4336 5.85806 28.7217 6.60336C28.941 7.16703 29.204 8.0188 29.2729 9.57829C29.348 11.2693 29.3668 11.7766 29.3668 16.0543C29.3668 20.3382 29.348 20.8455 29.2729 22.5302C29.204 24.096 28.941 24.9415 28.7217 25.5052C28.4336 26.2505 28.0829 26.7891 27.5255 27.3465C26.9618 27.9102 26.4295 28.2546 25.6842 28.5427C25.1205 28.7619 24.2687 29.025 22.7092 29.0939C21.0182 29.169 20.5109 29.1878 16.2333 29.1878C11.9494 29.1878 11.4421 29.169 9.75732 29.0939C8.19157 29.025 7.34606 28.7619 6.78239 28.5427C6.03709 28.2546 5.49847 27.9039 4.94106 27.3465C4.37739 26.7828 4.03292 26.2505 3.74482 25.5052C3.52561 24.9415 3.26257 24.0897 3.19368 22.5302C3.11852 20.8392 3.09973 20.3319 3.09973 16.0543C3.09973 11.7703 3.11852 11.263 3.19368 9.57829C3.26257 8.01253 3.52561 7.16703 3.74482 6.60336C4.03292 5.85806 4.38365 5.31944 4.94106 4.76203C5.50473 4.19836 6.03709 3.85389 6.78239 3.56579C7.34606 3.34659 8.19783 3.08354 9.75732 3.01464C11.4421 2.93949 11.9494 2.9207 16.2333 2.9207ZM16.2333 0.0334473C11.8805 0.0334473 11.3356 0.0522363 9.6258 0.127393C7.92226 0.202549 6.75107 0.478122 5.73646 0.872692C4.67801 1.28605 3.7824 1.83093 2.89305 2.72655C1.99744 3.61589 1.45256 4.51151 1.0392 5.56369C0.644626 6.58457 0.369053 7.74949 0.293896 9.45303C0.21874 11.1691 0.199951 11.714 0.199951 16.0668C0.199951 20.4196 0.21874 20.9645 0.293896 22.6743C0.369053 24.3778 0.644626 25.549 1.0392 26.5636C1.45256 27.6221 1.99744 28.5177 2.89305 29.407C3.7824 30.2964 4.67801 30.8475 5.7302 31.2546C6.75107 31.6492 7.91599 31.9247 9.61953 31.9999C11.3293 32.0751 11.8742 32.0938 16.227 32.0938C20.5798 32.0938 21.1247 32.0751 22.8345 31.9999C24.538 31.9247 25.7092 31.6492 26.7238 31.2546C27.776 30.8475 28.6716 30.2964 29.561 29.407C30.4503 28.5177 31.0015 27.6221 31.4086 26.5699C31.8032 25.549 32.0787 24.3841 32.1539 22.6805C32.229 20.9707 32.2478 20.4258 32.2478 16.073C32.2478 11.7202 32.229 11.1754 32.1539 9.46556C32.0787 7.76201 31.8032 6.59083 31.4086 5.57622C31.014 4.51151 30.4691 3.61589 29.5735 2.72655C28.6842 1.8372 27.7886 1.28605 26.7364 0.878955C25.7155 0.484385 24.5506 0.208812 22.847 0.133656C21.131 0.0522363 20.5861 0.0334473 16.2333 0.0334473Z" fill="white"/>
<path id="Vector_2" d="M16.2333 7.83093C11.6864 7.83093 7.99744 11.5199 7.99744 16.0668C7.99744 20.6138 11.6864 24.3027 16.2333 24.3027C20.7803 24.3027 24.4692 20.6138 24.4692 16.0668C24.4692 11.5199 20.7803 7.83093 16.2333 7.83093ZM16.2333 21.4092C13.2834 21.4092 10.891 19.0167 10.891 16.0668C10.891 13.1169 13.2834 10.7244 16.2333 10.7244C19.1832 10.7244 21.5757 13.1169 21.5757 16.0668C21.5757 19.0167 19.1832 21.4092 16.2333 21.4092Z" fill="white"/>
<path id="Vector_3" d="M26.7176 7.50515C26.7176 8.56986 25.8533 9.4279 24.7948 9.4279C23.7301 9.4279 22.8721 8.5636 22.8721 7.50515C22.8721 6.44043 23.7364 5.5824 24.7948 5.5824C25.8533 5.5824 26.7176 6.4467 26.7176 7.50515Z" fill="white"/>
</g>
<defs>
<clipPath id="clip0_1_9057">
<rect width="32.0667" height="32.0667" fill="white" transform="translate(0.199951 0.0334473)"/>
</clipPath>
</defs>
</svg>
