<svg width="33" height="33" viewBox="0 0 33 33" fill="none" xmlns="http://www.w3.org/2000/svg">
<g id="TikTok - Negative" clip-path="url(#clip0_1_9059)">
<path id="Vector" d="M23.0941 0.200073H17.6899V22.0425C17.6899 24.6451 15.6115 26.7829 13.0248 26.7829C10.4382 26.7829 8.35972 24.6451 8.35972 22.0425C8.35972 19.4866 10.3921 17.3952 12.8863 17.3023V11.8184C7.38974 11.9114 2.95557 16.4193 2.95557 22.0425C2.95557 27.7124 7.48212 32.2667 13.0711 32.2667C18.6599 32.2667 23.1865 27.6659 23.1865 22.0425V10.8425C25.2188 12.3296 27.713 13.2126 30.3458 13.2591V7.77524C26.2812 7.63582 23.0941 4.28973 23.0941 0.200073Z" fill="white"/>
</g>
<defs>
<clipPath id="clip0_1_9059">
<rect width="32.0667" height="32.0667" fill="white" transform="translate(0.283325 0.200073)"/>
</clipPath>
</defs>
</svg>
