<svg width="33" height="33" viewBox="0 0 33 33" fill="none" xmlns="http://www.w3.org/2000/svg">
<g id="Twitter - Original" clip-path="url(#clip0_1_9055)">
<path id="Vector" d="M10.2009 29.2614C22.3016 29.2614 28.9201 19.2361 28.9201 10.5422C28.9201 10.2574 28.9201 9.97394 28.9009 9.69176C30.1885 8.76043 31.2999 7.60727 32.1832 6.28628C30.9826 6.81858 29.7088 7.16751 28.4045 7.32139C29.778 6.49926 30.8059 5.20603 31.2969 3.68246C30.0055 4.44887 28.5926 4.98895 27.1193 5.27938C26.1273 4.22463 24.8154 3.52619 23.3865 3.29216C21.9577 3.05813 20.4915 3.30156 19.2149 3.98476C17.9383 4.66797 16.9225 5.75286 16.3246 7.07157C15.7267 8.39028 15.5801 9.86928 15.9075 11.2797C13.2918 11.1485 10.733 10.4687 8.39706 9.28451C6.06114 8.10031 4.00034 6.43814 2.34842 4.40589C1.50711 5.85422 1.24943 7.56877 1.62785 9.20042C2.00627 10.8321 2.99234 12.2581 4.38529 13.1883C3.33825 13.1576 2.31401 12.8752 1.39924 12.3648V12.4482C1.39966 13.9672 1.92547 15.4392 2.8875 16.6147C3.84953 17.7902 5.18854 18.5967 6.67742 18.8975C5.70884 19.1617 4.69259 19.2003 3.70676 19.0103C4.12733 20.3175 4.94585 21.4605 6.04789 22.2797C7.14993 23.0989 8.4804 23.5532 9.8533 23.5792C8.48923 24.6514 6.92716 25.4441 5.25643 25.912C3.5857 26.38 1.83911 26.5139 0.116577 26.3061C3.12528 28.2368 6.62601 29.261 10.2009 29.2563" fill="white"/>
</g>
<defs>
<clipPath id="clip0_1_9055">
<rect width="32.0667" height="32.0667" fill="white" transform="translate(0.116577 0.200073)"/>
</clipPath>
</defs>
</svg>
